<?xml version="1.0" encoding="utf-8"?>
<svg width="50" height="50" xmlns="http://www.w3.org/2000/svg">
  <path fill="#0cf" d="M0 0h50v50H0z" />
  <g fill="none" fill-rule="evenodd">
    <path stroke="#FFF" stroke-width="2.08068" fill="#FFF" stroke-linejoin="round" d="M16.76 20.127h11.097v11.79H16.76v-11.79z" />
    <path d="M30.66 34.78a22.74 22.74 0 0 1-4.629 3.303l-.727.394-1.544-1.745c-.15.309-.306.611-.468.908l-.557 1.018-3.79-2.643.471-.826c1.677-2.936 2.532-7.15 2.532-12.637v-9.047l1-.039c4.323-.169 8.25-.782 11.785-1.84l.742-.222 2.62 3.98-1.378.381c-3.157.875-6.6 1.486-10.33 1.835v1.92h10.595l-.117 1.145c-.44 4.348-1.542 7.906-3.321 10.663 1.111 1.19 2.483 2.27 4.117 3.238l1.167.692-3.307 3.23-.695-.441a26.801 26.801 0 0 1-4.165-3.268zm.05-7.495c-.264.56-.561 1.098-.89 1.616l1.764.016a16.122 16.122 0 0 1-.875-1.632zm-1.117-3.3a17.558 17.558 0 0 1-.225-1.197l-1.029 1.197h1.254zm2.235 0h1.252l-1.028-1.197a18.02 18.02 0 0 1-.224 1.197zm-13.543-4.24h-1.459a32.65 32.65 0 0 1-1.785 3.59l-.71 1.216-3.159-3.437.372-.659c1.163-2.06 2.109-4.736 2.829-8.028l.237-1.085 4.332 1.249-.24.971c-.156.634-.298 1.193-.426 1.677h4.952l-.068 1.105c-.131 2.125-.544 4.322-1.235 6.592l-.299.98-4.247-1.224.36-1.036c.193-.558.376-1.195.546-1.911zm.529 10.322c.194-.187.397-.386.608-.597l1.086-1.087 1.858 4.336-.498.498c-1.709 1.709-3.342 3.076-4.905 4.103l-.831.546-2.566-3.544.724-.624c.011-.01.032-.063.032-.241V20.184h4.492v9.883z"
      stroke="#FFF" stroke-width="2.08068" fill="#FFF" stroke-linejoin="round" />
    <path d="M37.13 35.461l-1.746 1.707a25.806 25.806 0 0 1-4.714-3.847 21.503 21.503 0 0 1-5.135 3.847l-1.57-1.774c2.203-1.247 3.923-2.547 5.16-3.902-1.644-2.591-2.718-5.44-3.224-8.547h-.555c.072 5.716-.917 10.449-2.967 14.196l-2.059-1.436c1.78-3.115 2.668-7.5 2.668-13.153v-8.046c4.408-.172 8.422-.8 12.043-1.883l1.409 2.14c-3.36.93-7.058 1.558-11.094 1.882v3.915H35.83c-.46 4.552-1.661 8.169-3.603 10.851 1.274 1.517 2.908 2.868 4.904 4.05zm-4.05-12.516h-4.74c.36 2.366 1.146 4.537 2.357 6.515 1.219-1.914 2.013-4.086 2.383-6.515zM22.121 16.28c-.126 2.041-.523 4.158-1.191 6.353l-2.209-.637c.317-.912.601-2.01.854-3.291h-3.44c-.642 1.562-1.306 2.93-1.992 4.104l-1.693-1.842c1.219-2.158 2.199-4.93 2.939-8.317l2.303.663a66.115 66.115 0 0 1-.786 2.967h5.215zm-.988 16.201c-1.662 1.662-3.242 2.985-4.741 3.97l-1.423-1.965c.262-.226.393-.569.393-1.03V21.225h2.411v11.149c.641-.497 1.436-1.22 2.384-2.168l.976 2.276z"
      fill="#0CF" />
  </g>
</svg>