<?xml version="1.0" encoding="utf-8"?>
<svg width="50" height="50" preserveAspectRatio="xMidYMid" xmlns="http://www.w3.org/2000/svg">
  <path fill="#55acee" d="M0 .03h50v50H0z" />
  <path d="M41.958 14.481a13.913 13.913 0 0 1-3.996 1.096 6.98 6.98 0 0 0 3.06-3.85 13.935 13.935 0 0 1-4.42 1.689 6.95 6.95 0 0 0-5.078-2.198 6.959 6.959 0 0 0-6.96 6.959c0 .545.063 1.076.181 1.585-5.783-.29-10.91-3.06-14.342-7.27a6.926 6.926 0 0 0-.942 3.498 6.955 6.955 0 0 0 3.095 5.792 6.93 6.93 0 0 1-3.152-.87v.087a6.963 6.963 0 0 0 5.582 6.823 6.968 6.968 0 0 1-3.143.12 6.965 6.965 0 0 0 6.5 4.832 13.962 13.962 0 0 1-8.641 2.979c-.562 0-1.116-.033-1.66-.098a19.696 19.696 0 0 0 10.666 3.127c12.8 0 19.798-10.603 19.798-19.799 0-.301-.006-.601-.02-.9a14.143 14.143 0 0 0 3.472-3.602"
    fill="#fff" style="fill:rgb(255, 255, 255)" /></svg>