<?xml version="1.0" encoding="utf-8"?>
<svg viewBox="0 0 48 48" width="50" height="50" xmlns="http://www.w3.org/2000/svg">
  <path fill="#f5f5f5" d="M0 0h50v50H0z" />
  <g>
    <path d="M31.174 27.587c-.432-4.161-5.453-7.03-11.478-6.384-3.514.36-6.742 1.864-8.536 4.016-1.149 1.365-1.65 2.942-1.507 4.52.358 3.802 4.59 6.456 9.9 6.456.502 0 1.003 0 1.578-.073 3.514-.358 6.742-1.863 8.535-4.015 1.149-1.365 1.65-2.943 1.508-4.52z"
      fill="#fff" />
    <path d="M20.988 34.688c-5.095.504-9.542-1.794-9.9-5.092-.36-3.301 3.586-6.456 8.68-6.958 5.165-.504 9.54 1.794 9.898 5.092.359 3.37-3.514 6.456-8.678 6.958m10.687-10.76c-.429-.144-.717-.214-.501-.788.501-1.22.574-2.295 0-3.085-1.004-1.435-3.803-1.362-6.958-.073 0 0-1.006.431-.718-.359.502-1.578.43-2.87-.358-3.587-1.724-1.72-6.314.073-10.26 3.946-2.941 2.942-4.662 6.027-4.662 8.68 0 5.165 6.6 8.25 13.128 8.25 8.466 0 14.132-4.878 14.132-8.75 0-2.369-2.01-3.66-3.803-4.235"
      fill="#d32f2f" />
    <path d="M21.775 28.59c-.213.359-.644.574-1.003.432-.359-.143-.432-.575-.286-.934.213-.358.645-.574.93-.358.432.073.505.431.36.86m-2.366 1.723c-.504.718-1.65 1.076-2.51.718-.864-.359-1.077-1.22-.575-1.867.501-.717 1.577-1.003 2.438-.717.933.289 1.219 1.149.647 1.866m2.08-5.453c-2.512-.644-5.308.575-6.384 2.727-1.076 2.225-.073 4.663 2.51 5.453 2.581.86 5.667-.432 6.743-2.8 1.076-2.295-.286-4.732-2.87-5.38"
      fill="#263238" />
    <path d="M39.35 22.207a1.076 1.076 0 1 1-2.152-.001 1.076 1.076 0 0 1 2.152 0z" fill="#f9a825" />
    <path d="M39.28 22.565a1.078 1.078 0 0 1-1.006.718 1.104 1.104 0 0 1-1.076-1.076c0-.143 0-.286.073-.432a6.636 6.636 0 0 0 .359-2.08 6.43 6.43 0 0 0-6.456-6.455c-.286 0-.645 0-.934.072h-.07-.072a1.104 1.104 0 0 1-1.076-1.076c0-.574.501-1.076 1.076-1.076.358-.073.717-.073 1.076-.073 4.735 0 8.608 3.873 8.608 8.609 0 1.003-.143 1.936-.502 2.87zm-3.802-2.87a4.316 4.316 0 0 0-4.304-4.303h-.502-.073a1.088 1.088 0 0 0-.933 1.076c0 .574.504 1.076 1.076 1.076h.359c1.222 0 2.152.933 2.152 2.152 0 .216-.07.501-.143.717-.07.143-.07.216-.07.359 0 .574.501 1.076 1.076 1.076.429 0 .787-.286 1.003-.645v-.072c0-.073 0-.073.073-.143.213-.432.286-.86.286-1.292z"
      fill="#f9a825" />
  </g>
</svg>